<?xml version="1.0" encoding="UTF-8"?>
<svg xmlns="http://www.w3.org/2000/svg" viewBox="0 0 32 32">
  <g transform="translate(16 16)" fill="#000000" stroke="#000000" stroke-linecap="round">
    <g stroke-width="1.5">
      <line x1="0" y1="0" x2="0" y2="-8.8"/>
      <line x1="0" y1="0" x2="0" y2="-13.2" transform="rotate(30)"/>
      <line x1="0" y1="0" x2="0" y2="-8.8" transform="rotate(60)"/>
      <line x1="0" y1="0" x2="0" y2="-13.2" transform="rotate(90)"/>
      <line x1="0" y1="0" x2="0" y2="-8.8" transform="rotate(120)"/>
      <line x1="0" y1="0" x2="0" y2="-13.2" transform="rotate(150)"/>
      <line x1="0" y1="0" x2="0" y2="-8.8" transform="rotate(180)"/>
      <line x1="0" y1="0" x2="0" y2="-13.2" transform="rotate(210)"/>
      <line x1="0" y1="0" x2="0" y2="-8.8" transform="rotate(240)"/>
      <line x1="0" y1="0" x2="0" y2="-13.2" transform="rotate(270)"/>
      <line x1="0" y1="0" x2="0" y2="-8.8" transform="rotate(300)"/>
      <line x1="0" y1="0" x2="0" y2="-13.2" transform="rotate(330)"/>
    </g>
    <circle r="2.15" stroke="none"/>
  </g>
</svg>
